<mxfile host="app.diagrams.net" modified="2024-03-11T05:56:23.474Z" agent="Mozilla/5.0 (Macintosh; Intel Mac OS X 10_15_7) AppleWebKit/605.1.15 (KHTML, like Gecko) Version/17.1 Safari/605.1.15" etag="OSCPgVdtyz2alj83RWiR" version="24.0.4" type="device">
  <diagram name="Страница — 1" id="08C1_fCpvPPT9sJYmryJ">
    <mxGraphModel dx="2190" dy="924" grid="1" gridSize="9" guides="1" tooltips="1" connect="1" arrows="1" fold="1" page="1" pageScale="1" pageWidth="827" pageHeight="1169" math="0" shadow="0">
      <root>
        <mxCell id="0" />
        <mxCell id="1" parent="0" />
        <mxCell id="429YPqndPADBmkC1ufm4-5" style="edgeStyle=orthogonalEdgeStyle;rounded=0;orthogonalLoop=1;jettySize=auto;html=1;exitX=1;exitY=0.5;exitDx=0;exitDy=0;entryX=0;entryY=0.5;entryDx=0;entryDy=0;" parent="1" source="429YPqndPADBmkC1ufm4-1" target="429YPqndPADBmkC1ufm4-2" edge="1">
          <mxGeometry relative="1" as="geometry" />
        </mxCell>
        <mxCell id="429YPqndPADBmkC1ufm4-1" value="" style="ellipse;whiteSpace=wrap;html=1;aspect=fixed;" parent="1" vertex="1">
          <mxGeometry x="120" y="160" width="40" height="40" as="geometry" />
        </mxCell>
        <mxCell id="429YPqndPADBmkC1ufm4-2" value="Авторизоваться" style="rounded=1;whiteSpace=wrap;html=1;" parent="1" vertex="1">
          <mxGeometry x="200" y="150" width="110" height="60" as="geometry" />
        </mxCell>
        <mxCell id="429YPqndPADBmkC1ufm4-4" value="Пользователь" style="text;html=1;align=center;verticalAlign=middle;resizable=0;points=[];autosize=1;strokeColor=none;fillColor=none;" parent="1" vertex="1">
          <mxGeometry x="90" y="200" width="100" height="30" as="geometry" />
        </mxCell>
        <mxCell id="429YPqndPADBmkC1ufm4-6" value="" style="rhombus;whiteSpace=wrap;html=1;strokeWidth=1;" parent="1" vertex="1">
          <mxGeometry x="360" y="160" width="40" height="40" as="geometry" />
        </mxCell>
        <mxCell id="429YPqndPADBmkC1ufm4-7" value="" style="verticalLabelPosition=bottom;verticalAlign=top;html=1;shape=mxgraph.basic.x;fillColor=#000000;strokeWidth=0;" parent="1" vertex="1">
          <mxGeometry x="375" y="175" width="10" height="10" as="geometry" />
        </mxCell>
        <mxCell id="429YPqndPADBmkC1ufm4-8" value="" style="endArrow=classic;html=1;rounded=0;exitX=1;exitY=0.5;exitDx=0;exitDy=0;entryX=0;entryY=0.5;entryDx=0;entryDy=0;" parent="1" source="429YPqndPADBmkC1ufm4-2" target="429YPqndPADBmkC1ufm4-6" edge="1">
          <mxGeometry width="50" height="50" relative="1" as="geometry">
            <mxPoint x="360" y="270" as="sourcePoint" />
            <mxPoint x="410" y="220" as="targetPoint" />
          </mxGeometry>
        </mxCell>
        <mxCell id="429YPqndPADBmkC1ufm4-9" value="Авторизоваться" style="rounded=1;whiteSpace=wrap;html=1;" parent="1" vertex="1">
          <mxGeometry x="440" y="20" width="110" height="60" as="geometry" />
        </mxCell>
        <mxCell id="429YPqndPADBmkC1ufm4-10" value="" style="endArrow=classic;html=1;rounded=0;exitX=0.5;exitY=0;exitDx=0;exitDy=0;entryX=0;entryY=0.5;entryDx=0;entryDy=0;" parent="1" source="429YPqndPADBmkC1ufm4-6" target="429YPqndPADBmkC1ufm4-9" edge="1">
          <mxGeometry width="50" height="50" relative="1" as="geometry">
            <mxPoint x="360" y="270" as="sourcePoint" />
            <mxPoint x="410" y="220" as="targetPoint" />
            <Array as="points">
              <mxPoint x="380" y="50" />
            </Array>
          </mxGeometry>
        </mxCell>
        <mxCell id="429YPqndPADBmkC1ufm4-11" value="Войти в аккаунт" style="rounded=1;whiteSpace=wrap;html=1;" parent="1" vertex="1">
          <mxGeometry x="440" y="150" width="110" height="60" as="geometry" />
        </mxCell>
        <mxCell id="429YPqndPADBmkC1ufm4-12" value="" style="endArrow=classic;html=1;rounded=0;exitX=1;exitY=0.5;exitDx=0;exitDy=0;entryX=0;entryY=0.5;entryDx=0;entryDy=0;" parent="1" source="429YPqndPADBmkC1ufm4-6" target="429YPqndPADBmkC1ufm4-11" edge="1">
          <mxGeometry width="50" height="50" relative="1" as="geometry">
            <mxPoint x="360" y="270" as="sourcePoint" />
            <mxPoint x="410" y="220" as="targetPoint" />
          </mxGeometry>
        </mxCell>
        <mxCell id="429YPqndPADBmkC1ufm4-14" value="" style="ellipse;whiteSpace=wrap;html=1;aspect=fixed;" parent="1" vertex="1">
          <mxGeometry x="600" y="160" width="40" height="40" as="geometry" />
        </mxCell>
        <mxCell id="429YPqndPADBmkC1ufm4-15" value="" style="ellipse;whiteSpace=wrap;html=1;aspect=fixed;" parent="1" vertex="1">
          <mxGeometry x="605" y="165" width="30" height="30" as="geometry" />
        </mxCell>
        <mxCell id="429YPqndPADBmkC1ufm4-16" value="" style="endArrow=classic;html=1;rounded=0;exitX=1;exitY=0.5;exitDx=0;exitDy=0;entryX=0;entryY=0.5;entryDx=0;entryDy=0;" parent="1" source="429YPqndPADBmkC1ufm4-11" target="429YPqndPADBmkC1ufm4-14" edge="1">
          <mxGeometry width="50" height="50" relative="1" as="geometry">
            <mxPoint x="440" y="260" as="sourcePoint" />
            <mxPoint x="490" y="210" as="targetPoint" />
          </mxGeometry>
        </mxCell>
        <mxCell id="429YPqndPADBmkC1ufm4-17" value="Есть аккаунт?" style="text;html=1;align=center;verticalAlign=middle;resizable=0;points=[];autosize=1;strokeColor=none;fillColor=none;" parent="1" vertex="1">
          <mxGeometry x="330" y="195" width="100" height="30" as="geometry" />
        </mxCell>
        <mxCell id="429YPqndPADBmkC1ufm4-18" value="Пользователь&amp;nbsp;&lt;div&gt;авторизован&lt;/div&gt;" style="text;html=1;align=center;verticalAlign=middle;resizable=0;points=[];autosize=1;strokeColor=none;fillColor=none;" parent="1" vertex="1">
          <mxGeometry x="565" y="125" width="110" height="40" as="geometry" />
        </mxCell>
        <mxCell id="429YPqndPADBmkC1ufm4-19" value="" style="shape=datastore;whiteSpace=wrap;html=1;" parent="1" vertex="1">
          <mxGeometry x="640" y="20" width="60" height="60" as="geometry" />
        </mxCell>
        <mxCell id="429YPqndPADBmkC1ufm4-20" value="Пользователи" style="text;html=1;align=center;verticalAlign=middle;resizable=0;points=[];autosize=1;strokeColor=none;fillColor=none;" parent="1" vertex="1">
          <mxGeometry x="620" y="80" width="100" height="30" as="geometry" />
        </mxCell>
        <mxCell id="429YPqndPADBmkC1ufm4-21" value="" style="endArrow=classic;dashed=1;html=1;rounded=0;entryX=0;entryY=0.7;entryDx=0;entryDy=0;exitX=0.75;exitY=0;exitDx=0;exitDy=0;startArrow=none;startFill=0;endFill=1;" parent="1" source="429YPqndPADBmkC1ufm4-11" target="429YPqndPADBmkC1ufm4-19" edge="1">
          <mxGeometry width="50" height="50" relative="1" as="geometry">
            <mxPoint x="500" y="260" as="sourcePoint" />
            <mxPoint x="550" y="210" as="targetPoint" />
          </mxGeometry>
        </mxCell>
        <mxCell id="429YPqndPADBmkC1ufm4-22" value="" style="endArrow=classic;dashed=1;html=1;rounded=0;entryX=0;entryY=0.5;entryDx=0;entryDy=0;exitX=1;exitY=0.5;exitDx=0;exitDy=0;startArrow=none;startFill=0;endFill=1;" parent="1" source="429YPqndPADBmkC1ufm4-9" target="429YPqndPADBmkC1ufm4-19" edge="1">
          <mxGeometry width="50" height="50" relative="1" as="geometry">
            <mxPoint x="533" y="160" as="sourcePoint" />
            <mxPoint x="645" y="112" as="targetPoint" />
          </mxGeometry>
        </mxCell>
        <mxCell id="429YPqndPADBmkC1ufm4-23" value="" style="rhombus;whiteSpace=wrap;html=1;strokeWidth=1;" parent="1" vertex="1">
          <mxGeometry x="600" y="265" width="40" height="40" as="geometry" />
        </mxCell>
        <mxCell id="429YPqndPADBmkC1ufm4-24" value="" style="verticalLabelPosition=bottom;verticalAlign=top;html=1;shape=mxgraph.basic.x;fillColor=#000000;strokeWidth=0;" parent="1" vertex="1">
          <mxGeometry x="615" y="280" width="10" height="10" as="geometry" />
        </mxCell>
        <mxCell id="429YPqndPADBmkC1ufm4-25" value="" style="endArrow=none;html=1;rounded=0;exitX=0.5;exitY=0;exitDx=0;exitDy=0;entryX=0.5;entryY=1;entryDx=0;entryDy=0;endFill=0;startArrow=classic;startFill=1;" parent="1" source="429YPqndPADBmkC1ufm4-23" target="429YPqndPADBmkC1ufm4-14" edge="1">
          <mxGeometry width="50" height="50" relative="1" as="geometry">
            <mxPoint x="500" y="260" as="sourcePoint" />
            <mxPoint x="550" y="210" as="targetPoint" />
            <Array as="points">
              <mxPoint x="620" y="250" />
            </Array>
          </mxGeometry>
        </mxCell>
        <mxCell id="429YPqndPADBmkC1ufm4-27" value="Имеет доступ&amp;nbsp;&lt;div&gt;к дому?&lt;div&gt;&lt;br&gt;&lt;/div&gt;&lt;/div&gt;" style="text;html=1;align=center;verticalAlign=middle;resizable=0;points=[];autosize=1;strokeColor=none;fillColor=none;" parent="1" vertex="1">
          <mxGeometry x="525" y="225" width="100" height="60" as="geometry" />
        </mxCell>
        <mxCell id="429YPqndPADBmkC1ufm4-30" value="" style="ellipse;whiteSpace=wrap;html=1;aspect=fixed;strokeWidth=5;" parent="1" vertex="1">
          <mxGeometry x="870" y="265" width="40" height="40" as="geometry" />
        </mxCell>
        <mxCell id="429YPqndPADBmkC1ufm4-33" value="Нет" style="text;html=1;align=center;verticalAlign=middle;resizable=0;points=[];autosize=1;strokeColor=none;fillColor=none;" parent="1" vertex="1">
          <mxGeometry x="660" y="260" width="40" height="30" as="geometry" />
        </mxCell>
        <mxCell id="429YPqndPADBmkC1ufm4-34" value="" style="shape=datastore;whiteSpace=wrap;html=1;" parent="1" vertex="1">
          <mxGeometry x="675" y="360" width="60" height="60" as="geometry" />
        </mxCell>
        <mxCell id="429YPqndPADBmkC1ufm4-35" value="Доступ к дому" style="text;html=1;align=center;verticalAlign=middle;resizable=0;points=[];autosize=1;strokeColor=none;fillColor=none;" parent="1" vertex="1">
          <mxGeometry x="655" y="420" width="100" height="30" as="geometry" />
        </mxCell>
        <mxCell id="429YPqndPADBmkC1ufm4-36" value="" style="endArrow=classic;dashed=1;html=1;rounded=0;entryX=0.028;entryY=0.614;entryDx=0;entryDy=0;exitX=1;exitY=1;exitDx=0;exitDy=0;startArrow=none;startFill=0;endFill=1;entryPerimeter=0;" parent="1" source="429YPqndPADBmkC1ufm4-23" target="429YPqndPADBmkC1ufm4-34" edge="1">
          <mxGeometry width="50" height="50" relative="1" as="geometry">
            <mxPoint x="533" y="160" as="sourcePoint" />
            <mxPoint x="650" y="72" as="targetPoint" />
          </mxGeometry>
        </mxCell>
        <mxCell id="429YPqndPADBmkC1ufm4-37" value="Просмотреть статистику" style="rounded=1;whiteSpace=wrap;html=1;" parent="1" vertex="1">
          <mxGeometry x="-220" y="380" width="110" height="60" as="geometry" />
        </mxCell>
        <mxCell id="429YPqndPADBmkC1ufm4-38" value="Просмотреть историю доступа" style="rounded=1;whiteSpace=wrap;html=1;" parent="1" vertex="1">
          <mxGeometry x="304" y="365" width="110" height="60" as="geometry" />
        </mxCell>
        <mxCell id="429YPqndPADBmkC1ufm4-41" value="Выбрать устройство" style="rounded=1;whiteSpace=wrap;html=1;" parent="1" vertex="1">
          <mxGeometry x="129" y="525" width="110" height="60" as="geometry" />
        </mxCell>
        <mxCell id="429YPqndPADBmkC1ufm4-42" value="" style="endArrow=classic;html=1;rounded=0;entryX=0.5;entryY=0;entryDx=0;entryDy=0;exitX=0;exitY=0.5;exitDx=0;exitDy=0;" parent="1" source="429YPqndPADBmkC1ufm4-23" target="429YPqndPADBmkC1ufm4-38" edge="1">
          <mxGeometry width="50" height="50" relative="1" as="geometry">
            <mxPoint x="420" y="390" as="sourcePoint" />
            <mxPoint x="470" y="340" as="targetPoint" />
            <Array as="points">
              <mxPoint x="535" y="285" />
              <mxPoint x="359" y="285" />
            </Array>
          </mxGeometry>
        </mxCell>
        <mxCell id="429YPqndPADBmkC1ufm4-43" value="" style="endArrow=classic;dashed=1;html=1;rounded=0;entryX=0.5;entryY=0;entryDx=0;entryDy=0;exitX=0.5;exitY=1;exitDx=0;exitDy=0;startArrow=none;startFill=0;endFill=1;" parent="1" source="429YPqndPADBmkC1ufm4-38" target="429YPqndPADBmkC1ufm4-44" edge="1">
          <mxGeometry width="50" height="50" relative="1" as="geometry">
            <mxPoint x="188" y="540" as="sourcePoint" />
            <mxPoint x="235" y="602" as="targetPoint" />
          </mxGeometry>
        </mxCell>
        <mxCell id="429YPqndPADBmkC1ufm4-44" value="" style="shape=datastore;whiteSpace=wrap;html=1;" parent="1" vertex="1">
          <mxGeometry x="329" y="460" width="60" height="60" as="geometry" />
        </mxCell>
        <mxCell id="429YPqndPADBmkC1ufm4-45" value="История доступа&amp;nbsp;&lt;div&gt;к дому&lt;/div&gt;" style="text;html=1;align=center;verticalAlign=middle;resizable=0;points=[];autosize=1;strokeColor=none;fillColor=none;" parent="1" vertex="1">
          <mxGeometry x="299" y="520" width="120" height="40" as="geometry" />
        </mxCell>
        <mxCell id="429YPqndPADBmkC1ufm4-46" value="" style="rhombus;whiteSpace=wrap;html=1;strokeWidth=1;" parent="1" vertex="1">
          <mxGeometry x="485" y="365" width="40" height="40" as="geometry" />
        </mxCell>
        <mxCell id="429YPqndPADBmkC1ufm4-48" value="" style="verticalLabelPosition=bottom;verticalAlign=top;html=1;shape=mxgraph.basic.x;fillColor=#000000;strokeWidth=0;" parent="1" vertex="1">
          <mxGeometry x="500" y="380" width="10" height="10" as="geometry" />
        </mxCell>
        <mxCell id="429YPqndPADBmkC1ufm4-49" value="" style="endArrow=classic;html=1;rounded=0;entryX=0.5;entryY=0;entryDx=0;entryDy=0;exitX=0;exitY=0.5;exitDx=0;exitDy=0;" parent="1" source="429YPqndPADBmkC1ufm4-23" target="429YPqndPADBmkC1ufm4-46" edge="1">
          <mxGeometry width="50" height="50" relative="1" as="geometry">
            <mxPoint x="400" y="390" as="sourcePoint" />
            <mxPoint x="450" y="340" as="targetPoint" />
            <Array as="points">
              <mxPoint x="505" y="285" />
            </Array>
          </mxGeometry>
        </mxCell>
        <mxCell id="429YPqndPADBmkC1ufm4-50" value="Владелец?" style="text;html=1;align=center;verticalAlign=middle;resizable=0;points=[];autosize=1;strokeColor=none;fillColor=none;" parent="1" vertex="1">
          <mxGeometry x="414" y="320" width="90" height="30" as="geometry" />
        </mxCell>
        <mxCell id="429YPqndPADBmkC1ufm4-51" value="" style="ellipse;whiteSpace=wrap;html=1;aspect=fixed;strokeWidth=5;" parent="1" vertex="1">
          <mxGeometry x="565" y="365" width="40" height="40" as="geometry" />
        </mxCell>
        <mxCell id="b2kKgzR0onRFa4hh5nwq-1" value="" style="endArrow=classic;html=1;rounded=0;entryX=0;entryY=0.5;entryDx=0;entryDy=0;" parent="1" target="429YPqndPADBmkC1ufm4-51" edge="1">
          <mxGeometry width="50" height="50" relative="1" as="geometry">
            <mxPoint x="525" y="385" as="sourcePoint" />
            <mxPoint x="625" y="335" as="targetPoint" />
          </mxGeometry>
        </mxCell>
        <mxCell id="b2kKgzR0onRFa4hh5nwq-2" value="Нет" style="text;html=1;align=center;verticalAlign=middle;resizable=0;points=[];autosize=1;strokeColor=none;fillColor=none;" parent="1" vertex="1">
          <mxGeometry x="525" y="360" width="40" height="30" as="geometry" />
        </mxCell>
        <mxCell id="b2kKgzR0onRFa4hh5nwq-3" value="Дать доступ к дому пользователю" style="rounded=1;whiteSpace=wrap;html=1;" parent="1" vertex="1">
          <mxGeometry x="450" y="435" width="110" height="60" as="geometry" />
        </mxCell>
        <mxCell id="b2kKgzR0onRFa4hh5nwq-4" value="" style="endArrow=classic;html=1;rounded=0;exitX=0.5;exitY=1;exitDx=0;exitDy=0;entryX=0.5;entryY=0;entryDx=0;entryDy=0;" parent="1" source="429YPqndPADBmkC1ufm4-46" target="b2kKgzR0onRFa4hh5nwq-3" edge="1">
          <mxGeometry width="50" height="50" relative="1" as="geometry">
            <mxPoint x="575" y="445" as="sourcePoint" />
            <mxPoint x="625" y="395" as="targetPoint" />
          </mxGeometry>
        </mxCell>
        <mxCell id="b2kKgzR0onRFa4hh5nwq-5" value="" style="endArrow=classic;dashed=1;html=1;rounded=0;entryX=0;entryY=0.7;entryDx=0;entryDy=0;exitX=1;exitY=0.5;exitDx=0;exitDy=0;startArrow=none;startFill=0;endFill=1;" parent="1" source="b2kKgzR0onRFa4hh5nwq-3" target="429YPqndPADBmkC1ufm4-34" edge="1">
          <mxGeometry width="50" height="50" relative="1" as="geometry">
            <mxPoint x="640" y="305" as="sourcePoint" />
            <mxPoint x="687" y="367" as="targetPoint" />
          </mxGeometry>
        </mxCell>
        <mxCell id="b2kKgzR0onRFa4hh5nwq-7" value="" style="rhombus;whiteSpace=wrap;html=1;strokeWidth=1;" parent="1" vertex="1">
          <mxGeometry x="164" y="380" width="40" height="40" as="geometry" />
        </mxCell>
        <mxCell id="b2kKgzR0onRFa4hh5nwq-8" value="" style="verticalLabelPosition=bottom;verticalAlign=top;html=1;shape=mxgraph.basic.x;fillColor=#000000;strokeWidth=0;" parent="1" vertex="1">
          <mxGeometry x="179" y="395" width="10" height="10" as="geometry" />
        </mxCell>
        <mxCell id="b2kKgzR0onRFa4hh5nwq-9" value="&lt;br&gt;&lt;div&gt;Уровень доступа&amp;nbsp;&lt;/div&gt;&lt;div&gt;соответствует?&lt;/div&gt;" style="text;html=1;align=center;verticalAlign=middle;resizable=0;points=[];autosize=1;strokeColor=none;fillColor=none;" parent="1" vertex="1">
          <mxGeometry x="179" y="320" width="120" height="60" as="geometry" />
        </mxCell>
        <mxCell id="b2kKgzR0onRFa4hh5nwq-10" value="" style="ellipse;whiteSpace=wrap;html=1;aspect=fixed;strokeWidth=5;" parent="1" vertex="1">
          <mxGeometry x="244" y="380" width="40" height="40" as="geometry" />
        </mxCell>
        <mxCell id="b2kKgzR0onRFa4hh5nwq-11" value="" style="endArrow=classic;html=1;rounded=0;entryX=0;entryY=0.5;entryDx=0;entryDy=0;" parent="1" target="b2kKgzR0onRFa4hh5nwq-10" edge="1">
          <mxGeometry width="50" height="50" relative="1" as="geometry">
            <mxPoint x="204" y="400" as="sourcePoint" />
            <mxPoint x="304" y="350" as="targetPoint" />
          </mxGeometry>
        </mxCell>
        <mxCell id="b2kKgzR0onRFa4hh5nwq-12" value="Нет" style="text;html=1;align=center;verticalAlign=middle;resizable=0;points=[];autosize=1;strokeColor=none;fillColor=none;" parent="1" vertex="1">
          <mxGeometry x="204" y="375" width="40" height="30" as="geometry" />
        </mxCell>
        <mxCell id="b2kKgzR0onRFa4hh5nwq-13" value="" style="endArrow=classic;html=1;rounded=0;exitX=0;exitY=0.5;exitDx=0;exitDy=0;entryX=0.5;entryY=0;entryDx=0;entryDy=0;" parent="1" source="429YPqndPADBmkC1ufm4-23" target="b2kKgzR0onRFa4hh5nwq-7" edge="1">
          <mxGeometry width="50" height="50" relative="1" as="geometry">
            <mxPoint x="200" y="470" as="sourcePoint" />
            <mxPoint x="250" y="420" as="targetPoint" />
            <Array as="points">
              <mxPoint x="184" y="285" />
            </Array>
          </mxGeometry>
        </mxCell>
        <mxCell id="b2kKgzR0onRFa4hh5nwq-14" value="Взаимодействие с устройством" style="rounded=1;whiteSpace=wrap;html=1;" parent="1" vertex="1">
          <mxGeometry x="129" y="615" width="110" height="60" as="geometry" />
        </mxCell>
        <mxCell id="b2kKgzR0onRFa4hh5nwq-15" value="" style="endArrow=classic;html=1;rounded=0;exitX=0.5;exitY=1;exitDx=0;exitDy=0;entryX=0.5;entryY=0;entryDx=0;entryDy=0;" parent="1" source="b2kKgzR0onRFa4hh5nwq-7" target="429YPqndPADBmkC1ufm4-41" edge="1">
          <mxGeometry width="50" height="50" relative="1" as="geometry">
            <mxPoint x="329" y="455" as="sourcePoint" />
            <mxPoint x="379" y="405" as="targetPoint" />
          </mxGeometry>
        </mxCell>
        <mxCell id="b2kKgzR0onRFa4hh5nwq-16" value="" style="endArrow=classic;html=1;rounded=0;exitX=0.5;exitY=1;exitDx=0;exitDy=0;entryX=0.5;entryY=0;entryDx=0;entryDy=0;" parent="1" source="429YPqndPADBmkC1ufm4-41" target="b2kKgzR0onRFa4hh5nwq-14" edge="1">
          <mxGeometry width="50" height="50" relative="1" as="geometry">
            <mxPoint x="329" y="535" as="sourcePoint" />
            <mxPoint x="379" y="485" as="targetPoint" />
          </mxGeometry>
        </mxCell>
        <mxCell id="b2kKgzR0onRFa4hh5nwq-17" value="" style="shape=datastore;whiteSpace=wrap;html=1;" parent="1" vertex="1">
          <mxGeometry y="576" width="60" height="60" as="geometry" />
        </mxCell>
        <mxCell id="b2kKgzR0onRFa4hh5nwq-18" value="Устройства" style="text;html=1;align=center;verticalAlign=middle;resizable=0;points=[];autosize=1;strokeColor=none;fillColor=none;" parent="1" vertex="1">
          <mxGeometry x="-15" y="645" width="90" height="30" as="geometry" />
        </mxCell>
        <mxCell id="b2kKgzR0onRFa4hh5nwq-19" value="" style="endArrow=classic;html=1;rounded=0;exitX=0;exitY=0.5;exitDx=0;exitDy=0;entryX=0.5;entryY=0;entryDx=0;entryDy=0;" parent="1" source="429YPqndPADBmkC1ufm4-23" target="429YPqndPADBmkC1ufm4-37" edge="1">
          <mxGeometry width="50" height="50" relative="1" as="geometry">
            <mxPoint x="280" y="420" as="sourcePoint" />
            <mxPoint x="330" y="370" as="targetPoint" />
            <Array as="points">
              <mxPoint x="-165" y="285" />
            </Array>
          </mxGeometry>
        </mxCell>
        <mxCell id="b2kKgzR0onRFa4hh5nwq-21" value="" style="endArrow=classic;dashed=1;html=1;rounded=0;entryX=1;entryY=0.7;entryDx=0;entryDy=0;exitX=0;exitY=0.75;exitDx=0;exitDy=0;startArrow=none;startFill=0;endFill=1;" parent="1" source="429YPqndPADBmkC1ufm4-41" target="b2kKgzR0onRFa4hh5nwq-17" edge="1">
          <mxGeometry width="50" height="50" relative="1" as="geometry">
            <mxPoint x="-70" y="490" as="sourcePoint" />
            <mxPoint x="180" y="495" as="targetPoint" />
          </mxGeometry>
        </mxCell>
        <mxCell id="b2kKgzR0onRFa4hh5nwq-44" value="" style="ellipse;whiteSpace=wrap;html=1;aspect=fixed;strokeWidth=5;" parent="1" vertex="1">
          <mxGeometry x="485" y="520" width="40" height="40" as="geometry" />
        </mxCell>
        <mxCell id="b2kKgzR0onRFa4hh5nwq-45" value="" style="endArrow=classic;html=1;rounded=0;entryX=0.5;entryY=0;entryDx=0;entryDy=0;exitX=0.5;exitY=1;exitDx=0;exitDy=0;" parent="1" source="b2kKgzR0onRFa4hh5nwq-3" target="b2kKgzR0onRFa4hh5nwq-44" edge="1">
          <mxGeometry width="50" height="50" relative="1" as="geometry">
            <mxPoint x="260" y="500" as="sourcePoint" />
            <mxPoint x="310" y="450" as="targetPoint" />
          </mxGeometry>
        </mxCell>
        <mxCell id="b2kKgzR0onRFa4hh5nwq-46" value="Пользователь&amp;nbsp;&lt;div&gt;добавлен&lt;/div&gt;" style="text;html=1;align=center;verticalAlign=middle;resizable=0;points=[];autosize=1;strokeColor=none;fillColor=none;" parent="1" vertex="1">
          <mxGeometry x="520" y="520" width="110" height="40" as="geometry" />
        </mxCell>
        <mxCell id="b2kKgzR0onRFa4hh5nwq-47" value="" style="ellipse;whiteSpace=wrap;html=1;aspect=fixed;strokeWidth=5;" parent="1" vertex="1">
          <mxGeometry x="-80" y="390" width="40" height="40" as="geometry" />
        </mxCell>
        <mxCell id="b2kKgzR0onRFa4hh5nwq-49" value="" style="endArrow=classic;html=1;rounded=0;exitX=1;exitY=0.5;exitDx=0;exitDy=0;entryX=0;entryY=0.5;entryDx=0;entryDy=0;" parent="1" source="429YPqndPADBmkC1ufm4-37" target="b2kKgzR0onRFa4hh5nwq-47" edge="1">
          <mxGeometry width="50" height="50" relative="1" as="geometry">
            <mxPoint x="-40" y="525" as="sourcePoint" />
            <mxPoint x="10" y="475" as="targetPoint" />
          </mxGeometry>
        </mxCell>
        <mxCell id="b2kKgzR0onRFa4hh5nwq-53" value="" style="ellipse;whiteSpace=wrap;html=1;aspect=fixed;strokeWidth=5;" parent="1" vertex="1">
          <mxGeometry x="164" y="710" width="40" height="40" as="geometry" />
        </mxCell>
        <mxCell id="b2kKgzR0onRFa4hh5nwq-54" value="" style="endArrow=classic;html=1;rounded=0;entryX=0.5;entryY=0;entryDx=0;entryDy=0;exitX=0.5;exitY=1;exitDx=0;exitDy=0;" parent="1" source="b2kKgzR0onRFa4hh5nwq-14" target="b2kKgzR0onRFa4hh5nwq-53" edge="1">
          <mxGeometry width="50" height="50" relative="1" as="geometry">
            <mxPoint x="184" y="670" as="sourcePoint" />
            <mxPoint x="239" y="630" as="targetPoint" />
          </mxGeometry>
        </mxCell>
        <mxCell id="b2kKgzR0onRFa4hh5nwq-55" value="Добавить/удалить устройство" style="rounded=1;whiteSpace=wrap;html=1;" parent="1" vertex="1">
          <mxGeometry x="-65" y="465" width="110" height="60" as="geometry" />
        </mxCell>
        <mxCell id="b2kKgzR0onRFa4hh5nwq-56" value="" style="endArrow=classic;html=1;rounded=0;entryX=0.5;entryY=0;entryDx=0;entryDy=0;exitX=0.5;exitY=1;exitDx=0;exitDy=0;" parent="1" source="b2kKgzR0onRFa4hh5nwq-7" target="b2kKgzR0onRFa4hh5nwq-55" edge="1">
          <mxGeometry width="50" height="50" relative="1" as="geometry">
            <mxPoint x="-40" y="560" as="sourcePoint" />
            <mxPoint x="10" y="510" as="targetPoint" />
            <Array as="points">
              <mxPoint x="184" y="440" />
              <mxPoint x="135" y="440" />
              <mxPoint x="-10" y="440" />
            </Array>
          </mxGeometry>
        </mxCell>
        <mxCell id="b2kKgzR0onRFa4hh5nwq-57" value="" style="ellipse;whiteSpace=wrap;html=1;aspect=fixed;strokeWidth=5;" parent="1" vertex="1">
          <mxGeometry x="85" y="475" width="40" height="40" as="geometry" />
        </mxCell>
        <mxCell id="b2kKgzR0onRFa4hh5nwq-59" value="" style="endArrow=classic;html=1;rounded=0;exitX=1;exitY=0.5;exitDx=0;exitDy=0;entryX=0;entryY=0.5;entryDx=0;entryDy=0;" parent="1" source="b2kKgzR0onRFa4hh5nwq-55" target="b2kKgzR0onRFa4hh5nwq-57" edge="1">
          <mxGeometry width="50" height="50" relative="1" as="geometry">
            <mxPoint x="35" y="540" as="sourcePoint" />
            <mxPoint x="85" y="490" as="targetPoint" />
          </mxGeometry>
        </mxCell>
        <mxCell id="b2kKgzR0onRFa4hh5nwq-60" value="Устройство&amp;nbsp;&lt;div&gt;добавлено/удалено&lt;/div&gt;" style="text;html=1;align=center;verticalAlign=middle;resizable=0;points=[];autosize=1;strokeColor=none;fillColor=none;" parent="1" vertex="1">
          <mxGeometry x="45" y="440" width="130" height="40" as="geometry" />
        </mxCell>
        <mxCell id="b2kKgzR0onRFa4hh5nwq-61" value="" style="endArrow=classic;dashed=1;html=1;rounded=0;entryX=0;entryY=0.5;entryDx=0;entryDy=0;exitX=0;exitY=0.5;exitDx=0;exitDy=0;startArrow=none;startFill=0;endFill=1;" parent="1" source="b2kKgzR0onRFa4hh5nwq-55" target="b2kKgzR0onRFa4hh5nwq-17" edge="1">
          <mxGeometry width="50" height="50" relative="1" as="geometry">
            <mxPoint x="90" y="580" as="sourcePoint" />
            <mxPoint x="-165" y="547" as="targetPoint" />
          </mxGeometry>
        </mxCell>
        <mxCell id="b2kKgzR0onRFa4hh5nwq-62" value="Создать/удалить дом" style="rounded=1;whiteSpace=wrap;html=1;" parent="1" vertex="1">
          <mxGeometry x="720" y="255" width="110" height="60" as="geometry" />
        </mxCell>
        <mxCell id="b2kKgzR0onRFa4hh5nwq-64" value="" style="endArrow=classic;html=1;rounded=0;entryX=0;entryY=0.5;entryDx=0;entryDy=0;exitX=1;exitY=0.5;exitDx=0;exitDy=0;" parent="1" source="429YPqndPADBmkC1ufm4-23" target="b2kKgzR0onRFa4hh5nwq-62" edge="1">
          <mxGeometry width="50" height="50" relative="1" as="geometry">
            <mxPoint x="510" y="430" as="sourcePoint" />
            <mxPoint x="560" y="380" as="targetPoint" />
          </mxGeometry>
        </mxCell>
        <mxCell id="b2kKgzR0onRFa4hh5nwq-65" value="" style="endArrow=classic;html=1;rounded=0;entryX=0;entryY=0.5;entryDx=0;entryDy=0;exitX=1;exitY=0.5;exitDx=0;exitDy=0;" parent="1" source="b2kKgzR0onRFa4hh5nwq-62" target="429YPqndPADBmkC1ufm4-30" edge="1">
          <mxGeometry width="50" height="50" relative="1" as="geometry">
            <mxPoint x="510" y="430" as="sourcePoint" />
            <mxPoint x="560" y="380" as="targetPoint" />
          </mxGeometry>
        </mxCell>
        <mxCell id="b2kKgzR0onRFa4hh5nwq-66" value="Дом&lt;div&gt;создан/удаен&lt;/div&gt;" style="text;html=1;align=center;verticalAlign=middle;resizable=0;points=[];autosize=1;strokeColor=none;fillColor=none;" parent="1" vertex="1">
          <mxGeometry x="842" y="225" width="100" height="40" as="geometry" />
        </mxCell>
        <mxCell id="b2kKgzR0onRFa4hh5nwq-67" value="" style="endArrow=classic;dashed=1;html=1;rounded=0;entryX=1;entryY=0.3;entryDx=0;entryDy=0;exitX=0.5;exitY=1;exitDx=0;exitDy=0;startArrow=none;startFill=0;endFill=1;" parent="1" source="b2kKgzR0onRFa4hh5nwq-62" target="429YPqndPADBmkC1ufm4-34" edge="1">
          <mxGeometry width="50" height="50" relative="1" as="geometry">
            <mxPoint x="640" y="305" as="sourcePoint" />
            <mxPoint x="687" y="407" as="targetPoint" />
          </mxGeometry>
        </mxCell>
        <mxCell id="b2kKgzR0onRFa4hh5nwq-68" value="" style="shape=datastore;whiteSpace=wrap;html=1;" parent="1" vertex="1">
          <mxGeometry x="-195" y="489" width="60" height="60" as="geometry" />
        </mxCell>
        <mxCell id="b2kKgzR0onRFa4hh5nwq-69" value="История работы&lt;div&gt;устройств&lt;/div&gt;" style="text;html=1;align=center;verticalAlign=middle;resizable=0;points=[];autosize=1;strokeColor=none;fillColor=none;" parent="1" vertex="1">
          <mxGeometry x="-223.5" y="549" width="117" height="45" as="geometry" />
        </mxCell>
        <mxCell id="b2kKgzR0onRFa4hh5nwq-70" value="" style="endArrow=classic;dashed=1;html=1;rounded=0;entryX=0.5;entryY=0;entryDx=0;entryDy=0;exitX=0.5;exitY=1;exitDx=0;exitDy=0;startArrow=none;startFill=0;endFill=1;" parent="1" source="429YPqndPADBmkC1ufm4-37" target="b2kKgzR0onRFa4hh5nwq-68" edge="1">
          <mxGeometry width="50" height="50" relative="1" as="geometry">
            <mxPoint x="-56" y="504" as="sourcePoint" />
            <mxPoint x="-120" y="714" as="targetPoint" />
          </mxGeometry>
        </mxCell>
      </root>
    </mxGraphModel>
  </diagram>
</mxfile>
